<?xml version="1.0" standalone="no"?>
<!DOCTYPE svg PUBLIC "-//W3C//DTD SVG 20010904//EN"
 "http://www.w3.org/TR/2001/REC-SVG-20010904/DTD/svg10.dtd">
<svg version="1.0" xmlns="http://www.w3.org/2000/svg"
 width="700.000000pt" height="700.000000pt" viewBox="0 0 700.000000 700.000000"
 preserveAspectRatio="xMidYMid meet">
<metadata>
Created by potrace 1.14, written by Peter Selinger 2001-2017
</metadata>
<g transform="translate(0.000000,700.000000) scale(0.100000,-0.100000)"
fill="#000000" stroke="none">
<path d="M812 4576 c-52 -13 -116 -64 -137 -109 -31 -66 -42 -171 -44 -423 -3
-376 -16 -412 -147 -420 -31 -2 -58 -4 -59 -6 -6 -6 -7 -35 -6 -124 l1 -91 56
-2 c136 -4 152 -43 154 -379 0 -125 3 -249 5 -277 13 -147 51 -238 113 -273
49 -27 135 -44 197 -40 l50 3 1 108 1 107 -51 1 c-28 0 -67 6 -86 13 -56 20
-62 51 -65 351 -3 322 -15 395 -77 474 -18 24 -18 25 1 45 59 65 72 147 75
471 4 347 6 353 136 364 l65 6 1 108 1 107 -71 -1 c-39 -1 -90 -6 -114 -13z"/>
<path d="M3930 4288 c0 -285 -1 -301 -17 -278 -65 98 -131 129 -254 122 -62
-4 -157 -100 -204 -207 -55 -124 -80 -272 -80 -475 1 -161 11 -255 41 -358 53
-183 130 -285 234 -313 94 -25 205 20 255 104 l25 42 0 -62 0 -61 83 0 82 0 0
891 -1 892 -82 3 -82 3 0 -303z m-115 -414 c26 -17 81 -119 90 -169 3 -16 9
-48 13 -70 4 -22 6 -116 6 -210 -1 -154 -4 -178 -28 -251 -38 -118 -101 -182
-166 -170 -14 2 -30 5 -37 5 -24 2 -74 55 -95 100 -49 106 -74 371 -48 511 4
25 11 60 13 79 8 50 65 159 93 178 53 34 103 34 159 -3z"/>
<path d="M1898 4522 c-161 -2 -178 -4 -179 -20 -1 -22 -1 -1627 0 -1669 l1
-32 345 1 345 1 1 28 c0 16 1 45 1 64 0 19 -1 62 -1 95 l-1 60 -258 0 -258 0
-1 270 -1 270 244 0 244 0 0 125 0 125 -37 1 c-21 0 -131 0 -244 0 l-206 0 1
212 1 212 253 3 252 2 0 125 0 124 -162 3 c-90 2 -243 2 -340 0z"/>
<path d="M5168 4283 l-3 -177 -43 1 -43 1 3 -111 3 -112 43 3 42 2 1 -357 c0
-197 2 -373 3 -390 15 -150 31 -206 73 -261 43 -57 99 -75 233 -76 l115 -1 0
108 c0 60 -2 111 -5 115 -3 4 -49 7 -103 8 -117 1 -132 10 -144 94 -5 30 -8
213 -8 405 l0 350 125 0 c69 0 127 3 130 7 3 4 5 53 5 110 l0 103 -128 0
c-106 0 -127 3 -128 15 -1 8 -2 87 -3 175 l-1 160 -82 3 -83 3 -2 -178z"/>
<path d="M4510 4124 c-53 -14 -179 -71 -181 -83 -4 -16 -5 -251 -1 -251 2 0
22 14 44 31 59 47 143 78 211 79 119 0 183 -65 203 -207 l6 -43 -94 -1 c-124
-1 -150 -4 -210 -26 -101 -36 -179 -138 -206 -268 -18 -86 -13 -266 9 -347 22
-77 72 -162 116 -194 102 -75 260 -48 344 58 l39 50 0 -61 0 -61 80 2 81 1 -2
441 c-1 454 -7 541 -44 651 -23 68 -43 102 -88 151 -70 76 -192 107 -307 78z
m276 -777 c-17 -225 -100 -353 -221 -342 -80 7 -126 73 -132 189 -4 85 19 160
59 189 36 27 114 43 215 44 l85 1 -6 -81z"/>
<path d="M5928 4127 c-26 -5 -80 -25 -120 -45 l-73 -37 -3 -133 -3 -134 43 35
c80 64 124 81 214 82 69 0 85 -3 117 -25 20 -13 45 -40 55 -60 19 -33 25 -55
37 -127 l5 -33 -87 -1 c-148 -1 -206 -12 -273 -53 -78 -47 -129 -136 -157
-276 -12 -59 -5 -228 12 -295 23 -91 47 -138 99 -189 50 -51 112 -71 190 -63
80 8 138 44 193 121 l21 30 0 -50 c0 -27 0 -55 1 -62 1 -9 23 -12 82 -10 l81
2 -5 470 c-2 259 -7 481 -10 494 -3 12 -13 49 -21 82 -55 216 -200 316 -398
277z m265 -775 c-5 -138 -54 -269 -122 -321 -47 -36 -128 -36 -167 0 -47 43
-63 94 -61 189 4 162 64 207 277 205 l75 0 -2 -73z"/>
<path d="M2515 4100 c4 -6 46 -98 181 -391 l104 -226 -125 -274 c-69 -151
-132 -287 -139 -304 -8 -16 -20 -43 -27 -60 -7 -16 -15 -33 -17 -38 -2 -4 40
-7 93 -6 l96 1 49 104 c28 57 50 105 50 108 0 2 21 48 46 103 25 54 50 109 55
122 6 14 13 21 19 15 4 -5 42 -83 83 -174 41 -91 87 -191 102 -222 l27 -57 94
1 c52 0 94 2 94 5 0 4 -11 28 -67 153 -89 197 -128 282 -150 330 -14 30 -39
84 -55 119 l-28 63 26 57 c14 31 39 83 54 116 30 65 198 433 206 451 3 7 -27
11 -95 11 -72 0 -101 -4 -103 -13 -8 -35 -184 -402 -189 -396 -4 4 -33 63 -64
132 -31 69 -73 159 -92 202 l-35 76 -98 -1 c-54 -1 -97 -4 -95 -7z"/>
</g>
</svg>
